<?xml version="1.0" standalone="no"?>
<!DOCTYPE svg PUBLIC "-//W3C//DTD SVG 20010904//EN"
 "http://www.w3.org/TR/2001/REC-SVG-20010904/DTD/svg10.dtd">
<svg version="1.0" xmlns="http://www.w3.org/2000/svg"
 width="1638.000000pt" height="356.000000pt" viewBox="0 0 1638.000000 356.000000"
 preserveAspectRatio="xMidYMid meet">

<g transform="translate(0.000000,356.000000) scale(0.100000,-0.100000)"
fill="#000000" stroke="none">
<path d="M1575 3490 c-463 -47 -868 -255 -1162 -599 -395 -461 -518 -1124
-316 -1705 197 -571 701 -1005 1308 -1129 95 -19 141 -22 330 -21 189 0 235 3
325 23 640 137 1134 574 1329 1175 64 195 75 278 75 531 0 201 -2 231 -26 345
-31 141 -102 360 -118 360 -3 0 -106 -101 -229 -224 l-224 -224 11 -74 c29
-186 22 -330 -24 -515 -120 -487 -510 -828 -997 -873 -245 -23 -455 17 -667
127 -322 166 -530 462 -596 849 -25 144 -15 403 19 539 58 224 154 399 309
561 376 392 1006 451 1463 139 l68 -47 189 189 190 190 -89 65 c-214 159 -434
251 -708 298 -135 23 -339 32 -460 20z"/>
<path d="M3020 3041 c-33 -41 -1308 -1321 -1316 -1321 -5 0 -103 95 -219 210
-116 116 -215 210 -221 210 -5 0 -77 -67 -159 -150 l-150 -150 75 -76 c206
-208 662 -659 668 -662 4 -1 89 80 188 180 99 101 467 472 817 826 l638 643
-147 152 c-81 84 -149 153 -153 154 -3 2 -13 -6 -21 -16z"/>
<path d="M10083 2745 c-32 -16 -61 -41 -79 -67 -25 -36 -29 -50 -29 -113 0
-92 29 -140 106 -179 96 -47 205 -30 276 45 39 41 53 77 53 132 -1 157 -178
256 -327 182z"/>
<path d="M15456 2760 c-76 -23 -156 -120 -156 -189 0 -88 68 -179 150 -201
151 -41 289 49 290 188 0 66 -20 111 -70 156 -56 51 -138 68 -214 46z"/>
<path d="M13035 2643 c-32 -65 -76 -153 -96 -195 l-38 -78 147 1 147 0 112
152 c62 84 126 171 144 195 l31 42 -194 0 -193 0 -60 -117z"/>
<path d="M4935 2674 c-276 -61 -481 -238 -589 -507 -59 -147 -81 -319 -66
-504 21 -264 99 -444 259 -603 73 -73 101 -93 191 -137 152 -74 213 -88 400
-87 126 1 170 5 235 22 337 91 552 350 606 731 18 129 7 344 -25 465 -79 303
-259 500 -546 597 -88 30 -107 33 -245 35 -109 3 -169 -1 -220 -12z m330 -361
c141 -49 234 -165 281 -348 23 -91 24 -309 1 -411 -52 -238 -220 -375 -441
-362 -107 7 -181 36 -251 99 -107 99 -154 223 -162 434 -14 351 117 564 372
605 60 9 145 2 200 -17z"/>
<path d="M11100 1760 l0 -900 205 0 205 0 0 370 0 370 365 0 365 0 0 165 0
165 -365 0 -365 0 0 200 0 200 405 0 405 0 0 165 0 165 -610 0 -610 0 0 -900z"/>
<path d="M15970 1760 l0 -900 205 0 205 0 0 900 0 900 -205 0 -205 0 0 -900z"/>
<path d="M6828 2217 c-96 -27 -175 -105 -217 -212 l-20 -50 0 123 -1 122 -195
0 -195 0 0 -670 0 -670 199 0 200 0 3 398 c3 348 6 402 21 441 26 66 58 103
118 136 49 27 63 30 144 30 50 0 105 -4 123 -8 l32 -9 0 109 c0 59 3 138 6
174 l7 66 -34 12 c-53 19 -140 22 -191 8z"/>
<path d="M7630 2219 c-155 -24 -276 -86 -380 -196 -124 -129 -176 -281 -173
-503 3 -263 95 -455 275 -576 112 -74 213 -105 363 -111 188 -8 318 28 447
120 115 83 189 215 212 380 l7 47 -195 0 c-184 0 -196 -1 -196 -18 0 -11 -14
-47 -31 -81 -52 -104 -148 -148 -264 -122 -101 23 -179 121 -204 255 -22 121
-7 267 38 354 58 112 182 165 305 131 54 -15 119 -84 140 -147 l18 -52 189 0
c216 0 198 -10 173 103 -23 100 -73 195 -136 257 -60 59 -199 131 -288 150
-80 16 -225 20 -300 9z"/>
<path d="M9028 2215 c-203 -39 -353 -144 -440 -311 -102 -195 -115 -461 -33
-680 35 -92 105 -196 167 -245 70 -56 197 -116 283 -134 91 -19 264 -19 357 0
105 22 227 84 297 153 58 58 124 172 137 238 l6 32 -118 6 c-66 3 -149 8 -186
11 l-68 5 -19 -39 c-42 -81 -112 -116 -231 -115 -151 1 -247 81 -279 232 -6
30 -9 58 -5 63 3 5 193 9 454 9 l448 0 7 31 c10 45 -4 202 -26 288 -58 228
-213 390 -426 445 -91 24 -233 28 -325 11z m241 -307 c69 -21 132 -103 155
-200 l6 -28 -266 0 -266 0 7 33 c36 165 190 248 364 195z"/>
<path d="M12865 2204 c-142 -31 -266 -108 -336 -210 -29 -43 -81 -182 -73
-196 3 -4 86 -8 184 -8 l179 0 21 38 c38 67 109 102 210 102 129 -1 219 -95
181 -188 -17 -40 -66 -60 -179 -73 -247 -27 -374 -56 -457 -105 -57 -33 -121
-101 -144 -154 -47 -108 -46 -263 4 -366 29 -58 102 -132 163 -163 131 -67
363 -67 494 0 48 25 135 103 143 130 14 43 25 14 25 -66 l0 -85 185 0 185 0 0
464 c0 273 -4 485 -10 517 -32 167 -144 287 -325 346 -69 22 -101 26 -230 29
-108 3 -170 -1 -220 -12z m383 -826 c-5 -104 -23 -151 -80 -205 -88 -85 -243
-94 -325 -19 -31 28 -37 40 -41 88 -9 112 51 156 247 184 63 9 131 22 150 29
20 7 40 13 45 14 4 0 6 -41 4 -91z"/>
<path d="M14345 2205 c-115 -26 -176 -54 -268 -123 -172 -131 -271 -404 -237
-652 25 -187 76 -296 191 -412 135 -137 302 -196 519 -185 184 10 308 58 419
163 96 90 139 178 166 337 l6 37 -190 0 -189 0 -17 -49 c-20 -61 -77 -128
-129 -152 -82 -37 -190 -20 -260 42 -127 112 -153 418 -51 579 53 83 119 120
212 120 114 -1 205 -71 228 -177 l7 -33 190 0 191 0 -6 53 c-17 172 -140 341
-299 411 -120 53 -343 72 -483 41z"/>
<path d="M9992 1528 l3 -673 40 1 c22 1 113 2 203 3 l162 1 0 670 0 670 -205
0 -205 0 2 -672z"/>
<path d="M15320 1530 l0 -670 205 0 205 0 0 670 0 670 -205 0 -205 0 0 -670z"/>
</g>
</svg>
