<?xml version="1.0" standalone="no"?>
<!DOCTYPE svg PUBLIC "-//W3C//DTD SVG 20010904//EN"
 "http://www.w3.org/TR/2001/REC-SVG-20010904/DTD/svg10.dtd">
<svg version="1.0" xmlns="http://www.w3.org/2000/svg"
 width="674.000000pt" height="678.000000pt" viewBox="0 0 674.000000 678.000000"
 preserveAspectRatio="xMidYMid meet">

<g transform="translate(0.000000,678.000000) scale(0.100000,-0.100000)"
fill="#000000" stroke="none">
<path d="M3025 6749 c-1072 -101 -2019 -709 -2574 -1653 -198 -337 -335 -726
-413 -1171 -21 -120 -22 -161 -23 -515 0 -425 3 -456 70 -761 103 -463 279
-852 563 -1244 393 -544 1005 -993 1640 -1204 633 -211 1324 -232 1967 -61
665 176 1316 603 1749 1145 216 271 424 641 536 955 253 707 265 1503 35 2221
-45 139 -114 309 -126 309 -5 0 -203 -194 -440 -432 l-431 -431 7 -36 c40
-211 56 -536 36 -718 -19 -164 -78 -444 -121 -573 -123 -365 -306 -658 -574
-918 -416 -403 -956 -616 -1561 -616 -363 0 -663 68 -982 224 -293 143 -547
345 -748 595 -211 262 -375 603 -449 937 -63 281 -85 535 -67 761 42 517 199
954 475 1321 78 104 258 291 361 373 434 352 1002 526 1577 484 450 -32 878
-190 1199 -442 20 -16 41 -29 45 -29 5 0 173 164 373 364 310 311 362 367 352
380 -21 25 -199 159 -300 225 -219 143 -463 261 -726 349 -250 84 -446 127
-715 157 -148 16 -579 19 -735 4z"/>
<path d="M4885 4883 c-566 -564 -1155 -1149 -1308 -1301 l-277 -277 -419 419
c-364 364 -421 417 -437 408 -11 -6 -144 -136 -297 -291 -216 -216 -277 -283
-270 -295 7 -13 1290 -1304 1392 -1400 l31 -30 1595 1599 c877 879 1595 1604
1595 1609 0 6 -129 140 -287 298 l-288 287 -1030 -1026z"/>
</g>
</svg>
